<?xml version="1.0" encoding="UTF-8" standalone="no"?>
<!DOCTYPE svg PUBLIC "-//W3C//DTD SVG 1.1//EN" "http://www.w3.org/Graphics/SVG/1.1/DTD/svg11.dtd">
<svg xmlns="http://www.w3.org/2000/svg" version="1.1" viewBox="0.00 0.00 600.00 600.00">
<g stroke-width="2.00" fill="none" stroke-linecap="butt">
<path stroke="#ffa180" vector-effect="non-scaling-stroke" d="
  M 337.16 164.51
  C 328.48 166.29 321.80 168.07 312.98 165.07
  Q 301.85 161.29 289.55 154.36"
/>
<path stroke="#ffa180" vector-effect="non-scaling-stroke" d="
  M 338.62 188.59
  C 331.35 198.17 312.81 193.29 303.99 188.73
  Q 296.31 184.76 286.10 175.30"
/>
<path stroke="#ffa180" vector-effect="non-scaling-stroke" d="
  M 369.98 286.85
  Q 378.58 294.72 390.98 293.92
  Q 411.62 292.59 423.87 277.42
  Q 424.57 276.56 423.80 274.48"
/>
<path stroke="#ffa180" vector-effect="non-scaling-stroke" d="
  M 414.26 263.40
  Q 399.45 274.80 381.00 273.05
  C 377.75 272.74 374.97 270.97 371.75 269.83"
/>
</g>
<path fill="#ffffff" d="
  M 337.16 164.51
  C 328.48 166.29 321.80 168.07 312.98 165.07
  Q 301.85 161.29 289.55 154.36
  L 289.44 121.69
  A 0.99 0.98 -75.6 0 0 288.94 120.83
  Q 281.01 116.35 279.73 106.98
  Q 279.72 105.91 279.02 102.00
  C 277.89 95.66 279.53 87.87 279.71 83.13
  Q 280.20 69.78 276.75 57.39
  A 1.53 1.52 6.7 0 1 278.96 55.65
  C 283.45 58.12 285.12 60.38 286.96 65.53
  Q 289.06 71.45 292.10 76.94
  C 294.79 81.78 299.31 86.40 302.86 91.24
  Q 303.18 91.67 303.70 91.55
  L 313.54 89.41
  A 0.60 0.60 0.0 0 0 313.99 88.68
  C 313.70 87.55 313.07 86.50 313.06 85.39
  C 313.00 77.88 313.79 69.29 311.74 62.48
  Q 310.09 57.00 307.06 52.00
  A 1.20 1.20 0.0 0 1 307.74 50.22
  Q 308.02 50.13 308.63 50.33
  C 311.37 51.20 315.92 60.31 316.48 62.26
  C 318.46 69.15 320.42 76.98 323.80 83.32
  C 325.97 87.39 327.40 90.42 331.41 91.73
  A 1.62 1.57 -9.5 0 1 332.18 92.26
  C 336.08 97.22 337.78 103.02 342.80 106.50
  Q 344.70 107.82 351.25 109.97
  Q 358.08 112.20 364.67 115.02
  C 367.10 116.06 367.71 117.54 369.09 119.58
  Q 369.37 120.00 369.19 120.47
  Q 367.16 125.60 367.12 131.04
  C 367.09 134.94 365.62 138.65 361.60 139.51
  Q 358.51 140.17 355.38 140.48
  C 348.86 141.10 342.51 142.94 336.20 144.62
  Q 335.72 144.75 335.68 145.25
  C 335.26 150.09 336.38 154.36 336.47 159.17
  Q 336.52 161.94 337.16 164.51
  Z"
/>
<path fill="#ff4200" d="
  M 289.55 154.36
  Q 301.85 161.29 312.98 165.07
  C 321.80 168.07 328.48 166.29 337.16 164.51
  Q 338.34 170.87 338.17 177.74
  Q 338.12 179.48 338.75 182.16
  Q 339.51 185.45 338.62 188.59
  C 331.35 198.17 312.81 193.29 303.99 188.73
  Q 296.31 184.76 286.10 175.30
  C 287.75 172.42 288.93 170.53 288.87 167.02
  Q 288.77 161.30 289.55 154.36
  Z"
/>
<path fill="#ffffff" d="
  M 369.98 286.85
  Q 378.58 294.72 390.98 293.92
  Q 411.62 292.59 423.87 277.42
  Q 424.57 276.56 423.80 274.48
  C 425.38 276.22 431.84 281.06 433.85 278.34
  C 436.29 275.03 438.46 272.42 439.86 268.65
  Q 443.05 260.06 445.38 250.06
  C 445.97 247.51 445.78 244.35 446.33 241.44
  Q 446.71 239.48 446.56 238.01
  C 445.67 228.94 443.20 221.73 440.66 213.75
  C 438.05 205.50 434.21 197.69 433.19 189.23
  Q 431.08 171.73 446.48 164.18
  C 449.65 162.62 454.65 162.57 456.41 166.18
  Q 457.59 168.62 454.73 170.71
  C 451.86 172.80 448.46 174.39 446.57 177.25
  C 444.65 180.15 443.59 182.71 444.23 186.39
  Q 445.60 194.25 447.02 196.97
  Q 455.44 213.08 458.91 222.51
  Q 461.41 229.28 462.42 238.51
  C 462.91 242.97 461.93 247.46 461.71 250.55
  C 460.91 261.78 456.02 272.10 454.72 283.18
  C 454.37 286.15 453.38 288.59 454.14 291.58
  C 455.84 298.23 458.40 305.22 458.62 311.99
  C 458.78 316.78 459.10 321.82 457.54 326.43
  Q 456.60 329.21 455.58 331.93
  Q 446.72 355.54 446.07 380.01
  Q 445.80 390.46 445.89 408.16
  Q 445.90 410.55 444.75 412.04
  C 440.80 417.14 432.84 415.45 428.90 411.58
  A 1.73 1.72 -48.4 0 1 428.77 409.27
  Q 430.53 407.07 433.09 405.91
  A 1.83 1.81 71.5 0 0 434.10 403.86
  Q 431.47 392.14 429.92 381.20
  Q 429.79 380.32 429.53 379.83
  Q 429.07 378.96 428.36 378.79
  A 0.95 0.94 -82.6 0 0 427.20 379.69
  Q 427.11 384.07 427.07 388.40
  C 427.04 390.96 425.69 394.01 426.28 396.76
  C 427.03 400.18 428.25 404.40 425.94 407.23
  C 421.82 412.25 417.10 409.83 412.25 408.09
  A 1.23 1.23 0.0 0 0 410.67 408.84
  Q 409.57 412.04 409.28 415.63
  Q 409.04 418.67 408.27 419.87
  C 406.12 423.25 402.78 421.69 400.06 421.91
  Q 397.40 422.11 394.75 421.99
  A 1.23 1.20 -19.7 0 1 393.90 421.60
  C 392.81 420.42 391.95 420.04 390.23 420.13
  Q 383.53 420.49 378.37 416.85
  A 1.49 1.49 0.0 0 1 378.18 414.57
  L 383.35 409.48
  Q 383.67 409.16 383.62 408.71
  Q 382.78 401.77 381.77 394.90
  C 379.58 380.00 374.64 365.71 372.48 350.84
  Q 371.70 345.42 370.81 340.03
  Q 370.04 335.35 367.61 328.38
  Q 366.62 325.54 366.35 322.14
  Q 366.09 318.92 365.57 315.90
  Q 364.91 312.15 365.22 308.74
  Q 366.14 298.51 369.98 286.85
  Z
  M 401.38 391.36
  Q 402.62 384.44 402.62 382.00
  C 402.64 373.58 403.21 364.60 402.07 356.27
  Q 401.49 352.00 400.73 347.67
  A 2.06 2.04 -79.1 0 0 399.81 346.30
  L 393.60 342.34
  A 0.97 0.97 0.0 0 0 392.13 342.97
  C 390.12 353.36 391.39 363.81 391.93 373.18
  Q 392.36 380.75 393.56 388.26
  C 394.06 391.42 393.61 395.12 394.24 398.87
  Q 395.07 403.88 394.71 409.00
  Q 394.66 409.63 394.83 409.97
  Q 395.14 410.62 395.82 410.46
  A 1.81 1.80 -85.6 0 0 397.10 409.36
  C 399.44 403.40 400.26 397.63 401.38 391.36
  Z
  M 416.62 396.53
  C 416.28 395.03 416.82 392.52 415.51 390.83
  A 0.44 0.43 33.0 0 0 414.74 390.99
  L 412.39 401.02
  A 1.06 1.06 0.0 0 0 413.69 402.29
  Q 415.96 401.70 417.31 399.81
  Q 417.64 399.35 417.41 398.84
  Q 416.89 397.70 416.62 396.53
  Z"
/>
<path fill="#ffffff" d="
  M 286.10 175.30
  Q 296.31 184.76 303.99 188.73
  C 312.81 193.29 331.35 198.17 338.62 188.59
  Q 340.11 197.67 341.06 206.58
  Q 342.27 218.00 343.43 223.80
  C 344.95 231.42 347.48 239.08 348.38 246.77
  C 348.70 249.49 349.64 252.09 349.35 254.78
  C 348.58 261.89 347.72 268.37 346.02 275.80
  C 343.85 285.29 343.40 293.17 342.19 301.94
  Q 340.80 312.08 340.35 316.84
  C 338.83 332.84 337.95 348.84 336.82 364.86
  Q 336.13 374.58 337.22 385.53
  Q 338.43 397.71 344.76 407.27
  C 346.04 409.20 349.12 410.99 350.49 412.86
  Q 352.45 415.53 352.55 419.09
  A 1.52 1.51 78.4 0 1 351.60 420.54
  Q 346.63 422.49 341.51 421.50
  A 1.89 1.77 -46.9 0 0 340.59 421.56
  C 331.97 424.42 327.15 416.74 326.92 409.41
  Q 326.67 401.52 322.30 394.93
  Q 322.02 394.51 322.00 394.00
  Q 321.73 388.24 322.72 382.62
  Q 323.71 377.09 323.78 374.22
  Q 324.14 359.15 322.95 344.15
  Q 322.34 336.41 322.07 329.82
  C 321.62 318.88 320.47 309.78 317.92 299.84
  A 1.28 1.27 73.1 0 0 316.27 298.95
  Q 309.82 301.18 302.74 302.46
  C 301.00 302.77 297.79 302.93 295.43 303.60
  A 1.00 1.00 0.0 0 0 294.76 304.26
  C 293.66 307.81 293.30 312.23 292.84 314.84
  Q 287.20 346.92 288.26 379.45
  Q 288.46 385.69 289.76 391.43
  Q 290.87 396.38 292.61 403.23
  C 293.36 406.18 294.07 406.69 296.76 408.64
  C 300.41 411.30 303.28 416.15 302.05 420.78
  Q 301.91 421.28 301.43 421.47
  Q 295.31 423.87 289.11 422.44
  C 287.01 421.96 286.47 422.13 284.59 422.78
  C 281.50 423.85 278.08 421.84 276.77 419.33
  Q 275.98 417.80 275.62 412.98
  C 275.29 408.65 274.89 404.70 273.19 400.43
  C 270.84 394.53 271.75 386.24 271.80 379.92
  Q 271.82 377.37 272.56 369.13
  C 273.00 364.28 272.57 359.38 273.11 354.65
  Q 274.30 344.22 273.58 335.24
  Q 272.16 317.35 267.25 300.14
  A 2.41 2.40 -88.9 0 0 265.69 298.51
  Q 254.70 294.79 244.93 288.52
  Q 244.34 288.15 244.22 288.83
  C 243.68 291.87 245.02 294.76 245.05 297.35
  C 245.15 304.47 245.53 311.17 243.04 318.46
  C 240.24 326.68 234.32 334.51 228.41 340.78
  C 224.55 344.86 219.12 349.16 214.46 353.27
  C 210.52 356.75 210.93 362.19 210.12 366.78
  C 209.42 370.77 209.87 374.75 210.94 378.00
  Q 213.29 385.14 215.69 392.27
  C 216.32 394.15 220.62 400.20 223.71 401.27
  Q 225.21 401.79 226.68 402.28
  Q 233.22 404.43 234.60 411.43
  A 1.42 1.41 85.4 0 1 233.17 413.12
  C 229.59 413.01 225.70 414.15 222.94 414.26
  C 219.89 414.39 209.21 413.55 208.12 409.54
  Q 206.24 402.58 204.55 395.57
  C 202.96 389.02 200.41 383.42 197.92 377.25
  Q 197.10 375.22 197.04 372.59
  Q 196.89 365.53 194.11 359.06
  C 192.55 355.41 192.32 352.02 195.64 349.54
  Q 203.33 343.79 206.47 334.96
  C 208.53 329.17 207.75 321.70 207.75 315.28
  Q 207.75 313.66 207.06 310.30
  C 206.60 308.02 207.01 305.68 206.21 303.61
  Q 203.87 297.47 199.73 292.77
  Q 198.37 291.23 197.27 292.96
  Q 190.82 303.08 184.04 313.04
  Q 181.96 316.11 179.27 319.26
  C 176.96 321.97 175.01 324.61 172.21 326.89
  Q 159.64 337.06 147.62 347.87
  Q 140.48 354.30 134.82 362.05
  C 132.18 365.68 131.07 368.80 130.96 373.57
  Q 130.65 387.63 131.17 392.97
  Q 132.08 402.44 140.76 407.45
  C 143.12 408.81 144.63 411.13 144.60 413.62
  A 2.28 2.28 0.0 0 1 142.34 415.87
  Q 138.63 415.90 135.24 416.50
  C 131.56 417.16 128.80 417.08 125.38 416.97
  A 1.12 1.10 -16.2 0 1 124.48 416.49
  Q 122.63 413.82 120.04 408.73
  C 118.15 405.00 117.77 403.41 119.04 399.12
  Q 120.22 395.12 120.22 393.50
  Q 120.23 382.79 120.21 372.09
  Q 120.20 364.90 121.27 359.49
  Q 122.49 353.27 124.35 347.19
  C 125.64 343.00 128.00 342.90 130.72 340.25
  Q 141.92 329.36 147.37 316.57
  Q 150.57 309.02 153.79 301.49
  C 156.19 295.89 158.19 289.12 160.55 282.94
  Q 162.12 278.83 162.94 275.41
  Q 165.82 263.52 166.77 257.52
  Q 169.50 240.31 183.34 230.26
  C 185.02 229.04 185.54 227.86 186.09 225.98
  Q 186.23 225.50 186.09 225.02
  C 185.25 221.94 184.99 219.06 183.80 216.06
  Q 180.62 208.06 180.15 201.50
  C 179.77 196.20 182.47 190.44 185.46 185.78
  C 187.60 182.43 195.22 173.10 199.79 174.06
  A 1.49 1.48 -67.3 0 1 200.72 176.33
  Q 197.81 180.74 195.62 185.02
  Q 186.55 202.70 200.22 216.48
  C 201.39 217.67 202.94 218.08 204.60 217.32
  Q 213.30 213.36 222.72 211.92
  C 237.15 209.72 248.37 208.26 260.17 198.58
  Q 273.83 187.37 286.10 175.30
  Z"
/>
<path fill="#ffffff" d="
  M 414.26 263.40
  Q 399.45 274.80 381.00 273.05
  C 377.75 272.74 374.97 270.97 371.75 269.83
  Q 372.34 268.02 372.80 265.95
  Q 373.24 264.01 372.67 262.05
  C 370.33 253.89 365.43 244.57 363.52 238.52
  C 361.69 232.75 365.80 224.67 369.87 219.96
  A 1.33 1.30 65.4 0 0 370.19 219.07
  C 370.12 214.75 370.00 210.52 371.09 206.40
  C 371.81 203.65 372.78 199.57 375.27 198.09
  Q 375.75 197.81 376.16 198.17
  C 379.35 200.98 381.73 208.25 383.17 212.16
  A 2.03 2.01 -13.0 0 0 385.29 213.47
  Q 387.78 213.20 389.96 214.35
  A 1.66 1.60 54.1 0 0 390.90 214.52
  C 395.85 213.91 403.38 217.37 407.80 219.30
  A 2.53 2.52 -57.5 0 0 410.71 218.65
  C 414.15 214.75 418.67 212.20 423.95 211.59
  Q 426.19 211.33 428.37 210.78
  Q 428.84 210.67 429.24 210.92
  C 432.66 213.13 430.72 217.89 430.27 221.09
  C 429.28 228.06 425.13 234.53 419.90 239.16
  C 419.09 239.88 418.71 240.16 418.54 241.34
  Q 417.52 248.41 413.30 254.05
  C 410.38 257.96 410.81 260.18 414.26 263.40
  Z"
/>
<path fill="#ff4200" d="
  M 414.26 263.40
  L 423.80 274.48
  Q 424.57 276.56 423.87 277.42
  Q 411.62 292.59 390.98 293.92
  Q 378.58 294.72 369.98 286.85
  L 371.75 269.83
  C 374.97 270.97 377.75 272.74 381.00 273.05
  Q 399.45 274.80 414.26 263.40
  Z"
/>
</svg>
